HIERARCHY
ROOT root
{
	OFFSET	0	13.1	24.9
	CHANNELS 6  Xposition Yposition Zposition Xrotation Yrotation Zrotation
	JOINT spine_1
	{
		OFFSET	0	9.99999	0
		CHANNELS 3  Xrotation Yrotation Zrotation
		JOINT spine_2
		{
			OFFSET	0	112	-10
			CHANNELS 3  Xrotation Yrotation Zrotation
			JOINT spine_3
			{
				OFFSET	0	206.5	19.3
				CHANNELS 3  Xrotation Yrotation Zrotation
				JOINT spine_4
				{
					OFFSET	0	110.4	14.6
					CHANNELS 3  Xrotation Yrotation Zrotation
					JOINT neck_1
					{
						OFFSET	0	71.8	-50.3
						CHANNELS 3  Xrotation Yrotation Zrotation
						JOINT neck_2
						{
							OFFSET	0	86.2	-25.8
							CHANNELS 3  Xrotation Yrotation Zrotation
							JOINT head_ee
							{
								OFFSET	0	179.8	-8.7
								CHANNELS 3  Xrotation Yrotation Zrotation
								End Site
								{
									OFFSET	1	0	0
								}
							}
						}
					}
					JOINT left_clavicle
					{
						OFFSET	-43.2	22.4	-70.8
						CHANNELS 3  Xrotation Yrotation Zrotation
						JOINT left_shoulder
						{
							OFFSET	-93.9	-5.79999	48.7
							CHANNELS 3  Xrotation Yrotation Zrotation
							JOINT left_elbow
							{
								OFFSET	-291.4	-30.8	15.2
								CHANNELS 3  Xrotation Yrotation Zrotation
								JOINT left_lowarm_twist
								{
									OFFSET	-110.7	-3.89999	13.6
									CHANNELS 3  Xrotation Yrotation Zrotation
									JOINT left_hand
									{
										OFFSET	-110.7	-3.89999	13.6
										CHANNELS 3  Xrotation Yrotation Zrotation
										JOINT left_ee
										{
											OFFSET	-80.8	-5.10001	12.1
											CHANNELS 3  Xrotation Yrotation Zrotation
											End Site
											{
												OFFSET	1	0	0
											}
										}
									}
								}
							}
						}
					}
					JOINT right_clavicle
					{
						OFFSET	43.2	22.4	-70.8
						CHANNELS 3  Xrotation Yrotation Zrotation
						JOINT right_shoulder
						{
							OFFSET	93.9	-5.79999	48.7
							CHANNELS 3  Xrotation Yrotation Zrotation
							JOINT right_elbow
							{
								OFFSET	291.4	-30.8	15.2
								CHANNELS 3  Xrotation Yrotation Zrotation
								JOINT right_lowarm_twist
								{
									OFFSET	110.7	-3.89999	13.6
									CHANNELS 3  Xrotation Yrotation Zrotation
									JOINT right_hand
									{
										OFFSET	110.7	-3.89999	13.6
										CHANNELS 3  Xrotation Yrotation Zrotation
										JOINT right_ee
										{
											OFFSET	80.8	-5.10001	12.1
											CHANNELS 3  Xrotation Yrotation Zrotation
											End Site
											{
												OFFSET	1	0	0
											}
										}
									}
								}
							}
						}
					}
				}
			}
		}
	}
	JOINT left_hip
	{
		OFFSET	-82.8	-127.5	0.300001
		CHANNELS 3  Xrotation Yrotation Zrotation
		JOINT left_knee
		{
			OFFSET	-28.2	-396.7	2.2
			CHANNELS 3  Xrotation Yrotation Zrotation
			JOINT left_ankle
			{
				OFFSET	-11.7	-411.3	35.4
				CHANNELS 3  Xrotation Yrotation Zrotation
				JOINT left_toes
				{
					OFFSET	0	-60	-88.6
					CHANNELS 3  Xrotation Yrotation Zrotation
					JOINT left_foot_ee
					{
						OFFSET	-22.5	-16.5	-42.2
						CHANNELS 3  Xrotation Yrotation Zrotation
						End Site
						{
							OFFSET	1	0	0
						}
					}
				}
			}
		}
	}
	JOINT right_hip
	{
		OFFSET	82.8	-127.5	0.300001
		CHANNELS 3  Xrotation Yrotation Zrotation
		JOINT right_knee
		{
			OFFSET	28.2	-396.7	2.2
			CHANNELS 3  Xrotation Yrotation Zrotation
			JOINT right_ankle
			{
				OFFSET	11.7	-411.3	35.4
				CHANNELS 3  Xrotation Yrotation Zrotation
				JOINT right_toes
				{
					OFFSET	0	-60	-88.6
					CHANNELS 3  Xrotation Yrotation Zrotation
					JOINT right_foot_ee
					{
						OFFSET	22.5	-16.5	-42.2
						CHANNELS 3  Xrotation Yrotation Zrotation
						End Site
						{
							OFFSET	1	0	0
						}
					}
				}
			}
		}
	}
}
MOTION
Frames: 14
Frame Time: 0.02
2884.17394729 689.309 -1639.83868404 -25.7657865403 74.944429314 29.6580983245 5.6221 -0.332448 -0.591186 5.62225 -0.294156 -0.611141 5.62521 -0.223014 -0.640535 5.62478 -0.321374 -0.597278 -14.6306 8.75381 0.55067 -14.8564 16.3986 3.41125 -0.0 0.0 -0.0 0.267698 18.5659 2.57427 10.9602 0.258873 71.428 1.29627 -32.7043 0.38035 -16.8346 -0.887087 1.95357 3.44127 19.0494 29.8841 -0.0 0.0 -0.0 10.0997 -9.52079 -19.0979 -23.4482 -8.68298 -60.0128 0.554755 15.3663 -0.07484 -21.6171 1.24024 -2.45375 7.69463 0.768568 -63.8104 0.0 0.0 0.0 7.76226 13.7374 -7.83687 6.64634 -0.330164 -0.965544 18.749 -29.5687 -3.21217 -7.39904 0.0 0.0 -0.0 0.0 -0.0 22.0979 2.71218 -5.2007 -59.0953 2.10309 -8.42501 28.8435 -7.65942 3.76429 -0.49346 0.0 0.0 0.0 0.0 0.0 
2866.93393323 690.489 -1624.9110219 -27.2947881513 78.2571745874 31.3920540041 5.19636 -0.691727 -0.643274 5.19635 -0.649393 -0.685985 5.20409 -0.56195 -0.759274 5.20392 -0.674808 -0.661 -15.1934 8.7334 -0.540428 -15.4573 17.0283 2.46622 -0.0 0.0 -0.0 0.864531 18.1323 3.43498 12.2406 -0.523612 71.5614 1.36843 -34.1308 0.420097 -15.6732 -0.807739 1.82783 3.62212 17.3681 30.7748 -0.0 0.0 -0.0 9.93225 -10.914 -18.6296 -23.5099 -10.0882 -58.4747 0.518597 14.4078 -0.0655502 -21.3182 1.21695 -2.42335 7.79826 0.890882 -65.3347 0.0 0.0 0.0 5.35464 16.676 -6.87173 7.87796 -0.403569 -1.14003 18.3169 -31.2122 -3.2158 -7.32376 0.0 0.0 -0.0 0.0 -0.0 26.9539 -2.54558 -2.77994 -61.0807 2.3178 -8.64341 28.3429 -7.72639 3.70946 -0.297717 0.0 0.0 0.0 0.0 0.0 
2850.89165324 689.897 -1607.46378518 -32.6697103896 81.9926213574 36.82828549 4.92594 -0.806139 -0.749865 4.92594 -0.756791 -0.799641 4.93647 -0.650743 -0.888082 4.93622 -0.782828 -0.77417 -15.7586 8.77509 -0.717808 -16.048 17.2261 2.40428 -0.0 0.0 -0.0 1.84918 17.41 4.88645 13.8053 -1.02519 71.2977 1.44273 -35.5508 0.462551 -15.5655 -0.800511 1.81609 3.35892 15.5562 28.3983 -0.0 0.0 -0.0 9.55935 -13.8347 -17.611 -24.0277 -11.2395 -56.5594 0.580925 16.0545 -0.0819263 -20.5815 1.16023 -2.34793 7.81436 0.719509 -65.7585 0.0 0.0 0.0 2.11919 17.7897 -6.17964 8.01172 -0.411768 -1.15889 17.7919 -30.6072 -3.107 -7.47587 0.0 0.0 -0.0 0.0 -0.0 31.6862 2.07421 -3.05903 -62.8895 2.51994 -8.83588 27.4807 -8.44239 3.61512 -0.248167 0.0 0.0 0.0 0.0 0.0 
2822.25407304 689.649 -1580.68280128 -38.8025091922 84.4751323628 42.3979841077 4.59809 -0.355501 -1.03095 4.59864 -0.289182 -1.05148 4.60353 -0.148948 -1.0803 4.60204 -0.317683 -1.04322 -17.0824 8.70112 0.171496 -17.3941 16.6158 3.41299 -0.0 0.0 -0.0 2.31224 17.5932 5.61058 15.9406 -3.05368 71.0929 1.56231 -37.7345 0.533931 -14.6247 -0.738314 1.71297 2.99406 11.1018 24.4664 -0.0 0.0 -0.0 9.1516 -15.8447 -16.6594 -25.0074 -13.1377 -54.6354 0.551515 15.2807 -0.0739838 -19.8585 1.10552 -2.27323 7.82073 -0.340486 -66.8704 0.0 0.0 0.0 -0.574984 19.412 -5.11701 6.33468 -0.312188 -0.92115 19.0535 -30.3107 -3.29069 -6.82087 0.0 0.0 -0.0 0.0 -0.0 31.9251 4.6134 -3.96819 -62.0191 2.42192 -8.74406 23.1831 -3.56579 3.12243 -0.0885324 0.0 0.0 0.0 0.0 0.0 
2807.62975848 689.052 -1575.47385443 -35.2868205341 84.287790331 38.7585316702 4.5006 -0.345203 -1.08708 4.50121 -0.275334 -1.10684 4.50608 -0.126038 -1.13358 4.50442 -0.303473 -1.09946 -17.4447 8.66857 -0.465875 -17.7807 16.9142 2.86477 -0.0 0.0 -0.0 3.1719 16.6127 6.90738 17.088 -2.96032 70.7986 1.59023 -38.2265 0.551109 -14.607 -0.737157 1.71101 2.64697 9.84045 21.6151 -0.0 0.0 -0.0 9.08905 -17.1606 -16.3897 -25.858 -12.5635 -53.2745 0.613639 16.9083 -0.0912078 -19.3592 1.06829 -2.22124 7.64152 -1.71781 -65.0928 0.0 0.0 0.0 -2.05238 20.7715 -4.69177 6.1117 -0.299475 -0.889328 19.7827 -30.3349 -3.40342 -6.98551 0.0 0.0 -0.0 0.0 -0.0 34.4649 10.4141 -6.7658 -53.5807 1.54811 -7.78138 19.4069 -2.72746 2.66489 -2.19867 0.0 0.0 0.0 0.0 0.0 
2792.99180931 688.319 -1576.79260892 -25.7729227636 83.178835333 29.244879123 4.4291 -0.223148 -1.29259 4.43002 -0.140452 -1.30417 4.43257 0.0355513 -1.31122 4.43021 -0.17196 -1.30039 -18.3515 8.48463 -0.451616 -18.7028 16.567 2.94434 -0.0 0.0 -0.0 3.59297 16.3706 7.56504 17.8349 -3.47731 70.283 1.62657 -38.8573 0.573756 -14.428 -0.725529 1.69129 2.22159 7.25114 17.7725 -0.0 0.0 -0.0 9.05844 -17.7623 -16.2616 -26.0337 -13.3691 -52.4694 0.610581 16.8288 -0.0903204 -19.1399 1.05208 -2.19831 7.66769 -2.92613 -66.5473 0.0 0.0 0.0 -3.01334 21.5949 -4.47786 6.13195 -0.300624 -0.89222 21.6958 -30.1723 -3.68245 -8.30199 0.0 0.0 -0.0 0.0 -0.0 33.8148 14.3569 -7.62575 -44.4442 0.773438 -6.60892 14.0246 -1.27911 1.97615 -4.99136 0.0 0.0 0.0 0.0 0.0 
2778.85428686 686.19 -1576.63682209 -23.8058806217 82.3218953296 27.47656772 4.32496 -0.162813 -1.42254 4.32609 -0.0719726 -1.43002 4.32713 0.122925 -1.42654 4.3243 -0.10389 -1.42805 -18.4483 8.28259 -0.610576 -18.7892 16.2642 2.72806 -0.0 0.0 -0.0 3.86358 16.3102 7.99262 18.041 -4.44685 70.4153 1.6626 -39.4717 0.596506 -13.9416 -0.694225 1.63747 2.05864 4.24755 15.5437 -0.0 0.0 -0.0 8.99927 -18.4421 -16.0759 -26.4485 -13.2026 -51.995 0.629344 17.3154 -0.0958287 -19.0863 1.04813 -2.19269 7.61014 -3.74879 -66.2373 0.0 0.0 0.0 -3.76781 22.7327 -4.43251 6.08429 -0.297921 -0.885414 23.3922 -30.0667 -3.92346 -8.85577 0.0 0.0 -0.0 0.0 -0.0 34.2145 17.8628 -7.85537 -34.899 0.174532 -5.27115 9.53857 -2.49653 1.36406 -6.41958 0.0 0.0 0.0 0.0 0.0 
2760.89553485 682.061 -1582.36849343 -19.9901910322 80.8836875366 23.9283473172 4.25206 -0.242492 -1.56365 4.25341 -0.142514 -1.57591 4.25645 0.0747832 -1.58057 4.253 -0.175745 -1.57255 -19.3113 8.36631 -0.318506 -19.6805 16.2804 3.16407 -0.0 0.0 -0.0 4.10462 16.323 8.3753 18.4409 -4.87699 70.6309 1.72868 -40.5712 0.639008 -13.9684 -0.695936 1.64044 1.77939 4.26617 13.6448 -0.0 0.0 -0.0 8.91428 -18.9863 -15.8668 -26.8129 -13.2662 -51.2735 0.5945 16.4097 -0.0857209 -19.6978 1.09348 -2.25653 7.59961 -4.55318 -66.699 0.0 0.0 0.0 -4.39576 23.3581 -4.66139 5.15597 -0.246395 -0.752396 24.9284 -30.0816 -4.14085 -8.99472 0.0 0.0 -0.0 0.0 -0.0 35.0936 21.2437 -7.76558 -29.3672 -0.0677843 -4.45722 5.1753 -2.37358 0.75088 -8.19379 0.0 0.0 0.0 0.0 0.0 
2747.51156613 676.799 -1585.93078856 -20.8856462515 79.7219491211 24.8550586147 4.30436 -0.28835 -1.69624 4.30595 -0.179846 -1.71114 4.31026 0.0547092 -1.7197 4.3062 -0.217531 -1.70676 -20.2797 7.54778 0.378018 -20.5872 14.3618 3.58698 -0.0 0.0 -0.0 4.09641 17.3002 8.36847 19.0724 -6.69905 71.383 1.76716 -41.1952 0.664193 -14.3502 -0.720492 1.6827 1.64895 3.57704 12.4948 -0.0 0.0 -0.0 9.04007 -19.1567 -16.0458 -25.6939 -12.3836 -49.8427 0.420048 11.7546 -0.0432396 -20.0905 1.12297 -2.29728 7.5932 -5.30086 -67.1761 0.0 0.0 0.0 -4.72521 23.764 -4.78928 4.62398 -0.217844 -0.675805 29.2581 -30.8776 -4.76669 -8.15318 0.0 0.0 -0.0 0.0 -0.0 35.1784 24.1868 -7.13752 -20.4912 -0.289476 -3.11448 0.142894 -8.39995 0.0209043 -9.4955 0.0 0.0 0.0 0.0 0.0 
2736.16133969 676.584 -1591.11391906 -18.7345420934 77.8308827738 22.5509365701 4.34825 -0.274784 -1.71299 4.34987 -0.165242 -1.727 4.35376 0.0700266 -1.73347 4.34962 -0.204581 -1.72279 -20.0906 7.39946 0.958692 -20.3656 13.78 4.03183 -0.0 0.0 -0.0 3.65917 17.3799 7.68758 18.846 -7.17437 72.4306 1.7973 -41.6757 0.684136 -14.2354 -0.713076 1.67 1.57284 2.43422 11.5336 -0.0 0.0 -0.0 9.20285 -19.1247 -16.3118 -24.2358 -11.6016 -49.2848 0.312698 8.80542 -0.0240758 -20.9065 1.18514 -2.3813 7.57053 -5.98821 -67.3009 0.0 0.0 0.0 -4.95948 24.005 -4.72266 3.31195 -0.150487 -0.48583 29.4662 -30.6746 -4.78073 -8.58576 0.0 0.0 -0.0 0.0 -0.0 34.6999 26.2197 -6.79713 -13.6473 -0.317219 -2.06539 -1.12573 -13.0719 -0.165708 -10.3533 0.0 0.0 0.0 0.0 0.0 
2735.35244799 676.584 -1595.8214251 -17.8658788652 77.2505394142 21.6613347712 4.34825 -0.274784 -1.71299 4.34987 -0.165242 -1.727 4.35376 0.0700266 -1.73347 4.34962 -0.204581 -1.72279 -20.0906 7.39946 0.958692 -20.3656 13.78 4.03183 -0.0 0.0 -0.0 3.65917 17.3799 7.68758 18.846 -7.17437 72.4306 1.7973 -41.6757 0.684136 -14.2354 -0.713076 1.67 1.57284 2.43422 11.5336 -0.0 0.0 -0.0 9.20285 -19.1247 -16.3118 -24.2358 -11.6016 -49.2848 0.312698 8.80542 -0.0240758 -20.9065 1.18514 -2.3813 7.57053 -5.98821 -67.3009 0.0 0.0 0.0 -4.95948 24.005 -4.72266 3.31195 -0.150487 -0.48583 29.4662 -30.6746 -4.78073 -8.58576 0.0 0.0 -0.0 0.0 -0.0 34.6999 26.2197 -6.79713 -13.6473 -0.317219 -2.06539 -1.12573 -13.0719 -0.165708 -10.3533 0.0 0.0 0.0 0.0 0.0 
2700.65795465 675.107 -1601.82415423 -18.2859737692 76.5686857608 21.863289481 3.94293 -0.0964864 -1.81593 3.94477 0.0192418 -1.81838 3.94311 0.278167 -1.79709 3.9386 -0.00909276 -1.81846 -21.5698 6.97571 1.04801 -21.8406 12.9553 4.11194 -0.0 0.0 -0.0 4.27812 19.8868 8.64456 18.6421 -8.70867 73.7618 1.86114 -42.6704 0.727 -14.9809 -0.761662 1.75213 1.87433 -0.202685 12.5431 -0.0 0.0 -0.0 9.67004 -19.3108 -17.038 -24.0915 -11.3729 -48.0082 0.192325 5.44239 -0.00914115 -24.3868 1.46353 -2.72951 7.33656 -8.95018 -65.2432 0.0 0.0 0.0 -6.87912 23.5665 -4.5992 1.23882 -0.0529919 -0.182711 32.3244 -31.8584 -5.2143 -8.38237 0.0 0.0 -0.0 0.0 -0.0 33.7278 28.9073 -5.66118 1.68058 0.0728443 0.247588 -8.32173 -23.2564 -1.27896 -8.61463 0.0 0.0 0.0 0.0 0.0 
2683.95168029 671.003 -1609.01268011 -16.4630710588 76.6445357585 20.1930181639 3.70183 -0.0639874 -1.96813 3.70399 0.0613546 -1.96821 3.70078 0.349443 -1.93792 3.69554 0.0390601 -1.96878 -22.0659 6.64701 1.4286 -22.3086 12.1528 4.36911 -0.0 0.0 -0.0 4.06976 19.3224 8.33339 18.2748 -9.37403 74.3286 1.82277 -42.0763 0.701138 -15.0486 -0.766126 1.75955 1.81201 -0.318183 12.07 -0.0 0.0 -0.0 9.88897 -19.4339 -17.3728 -24.0151 -11.3098 -47.7921 0.160952 4.55872 -0.00640639 -24.8274 1.50028 -2.77239 7.38325 -9.78247 -66.537 0.0 0.0 0.0 -8.56649 23.5434 -4.38968 0.310185 -0.0128971 -0.0458531 36.2069 -32.338 -5.69791 -7.18864 0.0 0.0 -0.0 0.0 -0.0 33.3647 29.7419 -4.91035 6.52202 0.322965 0.947848 -13.1214 -26.3074 -2.05972 -8.78987 0.0 0.0 0.0 0.0 0.0 
2665.07834745 665.472 -1619.55430569 -14.5380153691 77.2162536141 17.6483308839 3.53349 -0.200884 -1.96726 3.53564 -0.07532 -1.97605 3.53726 0.220931 -1.96511 3.53188 -0.0921314 -1.97534 -21.1067 7.09873 1.51313 -21.3641 12.9555 4.53886 -0.0 0.0 -0.0 4.04068 19.445 8.28969 17.0736 -9.6354 74.7832 1.80507 -41.7984 0.689307 -15.4366 -0.791889 1.80202 2.34263 -0.60343 15.615 -0.0 0.0 -0.0 10.151 -19.5266 -17.7828 -24.4122 -11.3085 -47.8593 0.183056 5.18158 -0.0082831 -27.0604 1.69154 -2.98528 7.21514 -11.5123 -64.6239 0.0 0.0 0.0 -9.56515 23.8323 -4.49672 -2.22477 0.0851889 0.330779 35.1709 -29.7296 -5.39884 -8.3255 0.0 0.0 -0.0 0.0 -0.0 32.5142 30.2637 -4.34973 7.15341 0.359931 1.03757 -14.2075 -29.0209 -2.26911 -7.20521 0.0 0.0 0.0 0.0 0.0 
